# WaveFront *.obj file (generated by Autodesk ATF)

mtllib ebea5695-1212-434a-85b7-35ea6f8d3cae.mtl

g Body159

v -10700.299228 2000.000000 -24065.523762
v -10866.475013 2000.000000 -24065.523762
v -10844.160215 2000.000000 -26054.711568
v -10678.005339 2000.000000 -26052.847635
v -10866.475013 5000.000000 -24065.523762
v -10844.160215 5000.000000 -26054.711568
v -10700.299228 5000.000000 -24065.523762
v -10678.005339 5000.000000 -26052.847635
vt -0.000000 198.931297 0.000000
vt 0.000000 0.000000 0.000000
vt 16.616533 198.744892 0.000000
vt 16.616533 0.000000 0.000000
vt 300.000000 198.931297 0.000000
vt 0.000000 198.931297 0.000000
vt 300.000000 0.000000 0.000000
vt -0.000000 0.000000 0.000000
vt 16.616533 198.931297 0.000000
vt 0.000000 198.744892 0.000000
vt 16.616533 0.000000 0.000000
vt -0.000000 0.000000 0.000000
vt 300.000000 198.744892 0.000000
vt 0.000000 198.744892 0.000000
vt 300.000000 0.000000 0.000000
vt 0.000000 0.000000 0.000000
vt -16.616533 0.000000 0.000000
vt -0.000000 0.000000 0.000000
vt -16.616533 300.000000 0.000000
vt -0.000000 300.000000 0.000000
vt -8.308789 -150.000000 0.000000
vt 8.308789 -150.000000 0.000000
vt -8.308789 150.000000 0.000000
vt 8.308789 150.000000 0.000000
vn 0.000000 -0.100000 0.000000
vn 0.000000 -0.100000 0.000000
vn 0.000000 -0.100000 0.000000
vn 0.000000 -0.100000 0.000000
vn -0.099994 0.000000 -0.001122
vn -0.099994 0.000000 -0.001122
vn -0.099994 0.000000 -0.001122
vn -0.099994 0.000000 -0.001122
vn 0.000000 0.100000 0.000000
vn 0.000000 0.100000 0.000000
vn 0.000000 0.100000 0.000000
vn 0.000000 0.100000 0.000000
vn 0.099994 -0.000000 0.001122
vn 0.099994 -0.000000 0.001122
vn 0.099994 -0.000000 0.001122
vn 0.099994 -0.000000 0.001122
vn 0.001122 0.000000 -0.099994
vn 0.001122 0.000000 -0.099994
vn 0.001122 0.000000 -0.099994
vn 0.001122 0.000000 -0.099994
vn 0.000000 0.000000 0.100000
vn 0.000000 0.000000 0.100000
vn 0.000000 0.000000 0.100000
vn 0.000000 0.000000 0.100000
usemtl Steel_-_Satin
f 2/1/1 3/2/2 1/3/3
f 1/3/3 3/2/2 4/4/4
f 2/5/5 5/6/6 3/7/7
f 3/7/7 5/6/6 6/8/8
f 5/9/9 7/10/10 6/11/11
f 6/11/11 7/10/10 8/12/12
f 7/13/13 1/14/14 8/15/15
f 8/15/15 1/14/14 4/16/16
f 4/17/17 3/18/18 8/19/19
f 8/19/19 3/18/18 6/20/20
f 2/21/21 1/22/22 5/23/23
f 5/23/23 1/22/22 7/24/24
# 8 vertices
# 24 texture params
# 24 normals
# 12 facets

# 1 groups
