# WaveFront *.obj file (generated by Autodesk ATF)

mtllib d914c40b-a5a6-4274-a9d4-3dc45959ac33.mtl

g Body1

v -1250.831393 0.000000 -24065.523762
v -1250.831393 0.000000 -23960.635604
v -1250.831393 2000.000000 -23960.635604
v -1250.831393 2000.000000 -24065.523762
v -364.691444 0.000000 -23960.635604
v -364.691444 2000.000000 -23960.635604
v -364.691444 0.000000 -24065.523762
v -364.691444 2000.000000 -24065.523762
vt -10.488816 0.000000 0.000000
vt 0.000000 0.000000 0.000000
vt -10.488816 200.000000 0.000000
vt 0.000000 200.000000 0.000000
vt 200.000000 88.613995 0.000000
vt -0.000000 88.613995 0.000000
vt 200.000000 0.000000 0.000000
vt -0.000000 0.000000 0.000000
vt 10.488816 88.613995 0.000000
vt -0.000000 88.613995 0.000000
vt 10.488816 0.000000 0.000000
vt -0.000000 0.000000 0.000000
vt 200.000000 88.613995 0.000000
vt 0.000000 88.613995 0.000000
vt 200.000000 0.000000 0.000000
vt 0.000000 0.000000 0.000000
vt 10.488816 88.613995 0.000000
vt 0.000000 88.613995 0.000000
vt 10.488816 0.000000 0.000000
vt 0.000000 0.000000 0.000000
vt 5.244408 100.000000 0.000000
vt -5.244408 100.000000 0.000000
vt 5.244408 -100.000000 0.000000
vt -5.244408 -100.000000 0.000000
vn -0.100000 0.000000 0.000000
vn -0.100000 0.000000 0.000000
vn -0.100000 0.000000 0.000000
vn -0.100000 0.000000 0.000000
vn 0.000000 0.000000 0.100000
vn 0.000000 0.000000 0.100000
vn 0.000000 0.000000 0.100000
vn 0.000000 0.000000 0.100000
vn 0.000000 -0.100000 0.000000
vn 0.000000 -0.100000 0.000000
vn 0.000000 -0.100000 0.000000
vn 0.000000 -0.100000 0.000000
vn 0.000000 0.000000 -0.100000
vn 0.000000 0.000000 -0.100000
vn 0.000000 0.000000 -0.100000
vn 0.000000 0.000000 -0.100000
vn 0.000000 0.100000 0.000000
vn 0.000000 0.100000 0.000000
vn 0.000000 0.100000 0.000000
vn 0.000000 0.100000 0.000000
vn 0.100000 -0.000000 0.000000
vn 0.100000 -0.000000 0.000000
vn 0.100000 -0.000000 0.000000
vn 0.100000 -0.000000 0.000000
usemtl Steel_-_Satin
f 1/1/1 2/2/2 4/3/3
f 4/3/3 2/2/2 3/4/4
f 5/5/5 6/6/6 2/7/7
f 2/7/7 6/6/6 3/8/8
f 7/9/9 5/10/10 1/11/11
f 1/11/11 5/10/10 2/12/12
f 8/13/13 7/14/14 4/15/15
f 4/15/15 7/14/14 1/16/16
f 6/17/17 8/18/18 3/19/19
f 3/19/19 8/18/18 4/20/20
f 8/21/21 6/22/22 7/23/23
f 7/23/23 6/22/22 5/24/24
g Body2

v -364.691444 2000.000000 -24065.523762
v -364.691444 0.000000 -24065.523762
v -364.691444 0.000000 -23960.635604
v -364.691444 2000.000000 -23960.635604
v 521.448504 0.000000 -23960.635604
v 521.448504 2000.000000 -23960.635604
v 521.448504 0.000000 -24065.523762
v 521.448504 2000.000000 -24065.523762
vt -5.244408 -100.000000 0.000000
vt 5.244408 -100.000000 0.000000
vt -5.244408 100.000000 0.000000
vt 5.244408 100.000000 0.000000
vt -0.000000 88.613995 0.000000
vt 200.000000 88.613995 0.000000
vt -0.000000 177.227990 0.000000
vt 200.000000 177.227990 0.000000
vt -0.000000 88.613995 0.000000
vt 10.488816 88.613995 0.000000
vt -0.000000 177.227990 0.000000
vt 10.488816 177.227990 0.000000
vt 0.000000 88.613995 0.000000
vt 200.000000 88.613995 0.000000
vt 0.000000 177.227990 0.000000
vt 200.000000 177.227990 0.000000
vt 0.000000 88.613995 0.000000
vt 10.488816 88.613995 0.000000
vt 0.000000 177.227990 0.000000
vt 10.488816 177.227990 0.000000
vt -10.488816 0.000000 0.000000
vt -0.000000 0.000000 0.000000
vt -10.488816 200.000000 0.000000
vt -0.000000 200.000000 0.000000
vn -0.100000 0.000000 -0.000000
vn -0.100000 0.000000 -0.000000
vn -0.100000 0.000000 -0.000000
vn -0.100000 0.000000 -0.000000
vn 0.000000 0.000000 0.100000
vn 0.000000 0.000000 0.100000
vn 0.000000 0.000000 0.100000
vn 0.000000 0.000000 0.100000
vn 0.000000 -0.100000 0.000000
vn 0.000000 -0.100000 0.000000
vn 0.000000 -0.100000 0.000000
vn 0.000000 -0.100000 0.000000
vn 0.000000 0.000000 -0.100000
vn 0.000000 0.000000 -0.100000
vn 0.000000 0.000000 -0.100000
vn 0.000000 0.000000 -0.100000
vn 0.000000 0.100000 0.000000
vn 0.000000 0.100000 0.000000
vn 0.000000 0.100000 0.000000
vn 0.000000 0.100000 0.000000
vn 0.100000 0.000000 0.000000
vn 0.100000 0.000000 0.000000
vn 0.100000 0.000000 0.000000
vn 0.100000 0.000000 0.000000
f 10/25/25 11/26/26 9/27/27
f 9/27/27 11/26/26 12/28/28
f 12/29/29 11/30/30 14/31/31
f 14/31/31 11/30/30 13/32/32
f 11/33/33 10/34/34 13/35/35
f 13/35/35 10/34/34 15/36/36
f 10/37/37 9/38/38 15/39/39
f 15/39/39 9/38/38 16/40/40
f 9/41/41 12/42/42 16/43/43
f 16/43/43 12/42/42 14/44/44
f 13/45/45 15/46/46 14/47/47
f 14/47/47 15/46/46 16/48/48
g Body158

v 521.448504 5000.000000 -24065.523762
v 521.448504 2000.000000 -24065.523762
v -1250.831393 2000.000000 -24065.523762
v -1250.831393 5000.000000 -24065.523762
v 521.448504 5000.000000 -23960.635604
v -1250.831393 5000.000000 -23960.635604
v 521.448504 2000.000000 -23960.635604
v -1250.831393 2000.000000 -23960.635604
vt 300.000000 177.227990 0.000000
vt 0.000000 177.227990 0.000000
vt 300.000000 0.000000 0.000000
vt 0.000000 0.000000 0.000000
vt 10.488816 177.227990 0.000000
vt 0.000000 177.227990 0.000000
vt 10.488816 0.000000 0.000000
vt 0.000000 0.000000 0.000000
vt 10.488816 177.227990 0.000000
vt -0.000000 177.227990 0.000000
vt 10.488816 0.000000 0.000000
vt -0.000000 0.000000 0.000000
vt 300.000000 177.227990 0.000000
vt -0.000000 177.227990 0.000000
vt 300.000000 0.000000 0.000000
vt -0.000000 0.000000 0.000000
vt -10.488816 0.000000 0.000000
vt 0.000000 0.000000 0.000000
vt -10.488816 300.000000 0.000000
vt 0.000000 300.000000 0.000000
vt -10.488816 0.000000 0.000000
vt -0.000000 0.000000 0.000000
vt -10.488816 300.000000 0.000000
vt -0.000000 300.000000 0.000000
vn 0.000000 0.000000 -0.100000
vn 0.000000 0.000000 -0.100000
vn 0.000000 0.000000 -0.100000
vn 0.000000 0.000000 -0.100000
vn 0.000000 0.100000 0.000000
vn 0.000000 0.100000 0.000000
vn 0.000000 0.100000 0.000000
vn 0.000000 0.100000 0.000000
vn 0.000000 -0.100000 0.000000
vn 0.000000 -0.100000 0.000000
vn 0.000000 -0.100000 0.000000
vn 0.000000 -0.100000 0.000000
vn 0.000000 0.000000 0.100000
vn 0.000000 0.000000 0.100000
vn 0.000000 0.000000 0.100000
vn 0.000000 0.000000 0.100000
vn -0.100000 0.000000 0.000000
vn -0.100000 0.000000 0.000000
vn -0.100000 0.000000 0.000000
vn -0.100000 0.000000 0.000000
vn 0.100000 0.000000 0.000000
vn 0.100000 0.000000 0.000000
vn 0.100000 0.000000 0.000000
vn 0.100000 0.000000 0.000000
f 17/49/49 18/50/50 20/51/51
f 20/51/51 18/50/50 19/52/52
f 21/53/53 17/54/54 22/55/55
f 22/55/55 17/54/54 20/56/56
f 18/57/57 23/58/58 19/59/59
f 19/59/59 23/58/58 24/60/60
f 23/61/61 21/62/62 24/63/63
f 24/63/63 21/62/62 22/64/64
f 19/65/65 24/66/66 20/67/67
f 20/67/67 24/66/66 22/68/68
f 23/69/69 18/70/70 21/71/71
f 21/71/71 18/70/70 17/72/72
# 24 vertices
# 72 texture params
# 72 normals
# 36 facets

# 3 groups
